<?xml version="1.0" encoding="UTF-8" standalone="no"?>
<!-- Generator: Adobe Illustrator 19.0.0, SVG Export Plug-In . SVG Version: 6.00 Build 0)  -->

<svg
   xmlns:dc="http://purl.org/dc/elements/1.1/"
   xmlns:cc="http://creativecommons.org/ns#"
   xmlns:rdf="http://www.w3.org/1999/02/22-rdf-syntax-ns#"
   xmlns:svg="http://www.w3.org/2000/svg"
   xmlns="http://www.w3.org/2000/svg"
   xmlns:sodipodi="http://sodipodi.sourceforge.net/DTD/sodipodi-0.dtd"
   xmlns:inkscape="http://www.inkscape.org/namespaces/inkscape"
   version="1.1"
   id="Layer_1"
   x="0px"
   y="0px"
   viewBox="0 0 13 13"
   xml:space="preserve"
   sodipodi:docname="quiet.svg"
   width="13"
   height="13"
   inkscape:version="0.92.4 (5da689c313, 2019-01-14)"><metadata
   id="metadata49"><rdf:RDF><cc:Work
       rdf:about=""><dc:format>image/svg+xml</dc:format><dc:type
         rdf:resource="http://purl.org/dc/dcmitype/StillImage" /></cc:Work></rdf:RDF></metadata><defs
   id="defs47" /><sodipodi:namedview
   pagecolor="#ffffff"
   bordercolor="#666666"
   borderopacity="1"
   objecttolerance="10"
   gridtolerance="10"
   guidetolerance="10"
   inkscape:pageopacity="0"
   inkscape:pageshadow="2"
   inkscape:window-width="1600"
   inkscape:window-height="877"
   id="namedview45"
   showgrid="false"
   inkscape:zoom="0.49796278"
   inkscape:cx="236.9655"
   inkscape:cy="236.96651"
   inkscape:window-x="-8"
   inkscape:window-y="-8"
   inkscape:window-maximized="1"
   inkscape:current-layer="Layer_1" />
<circle
   style="fill:#ffc10e;stroke-width:0.02743009"
   cx="6.5"
   cy="6.5"
   r="6.5"
   id="circle2" />
<g
   id="g8"
   transform="matrix(0.0274301,0,0,0.0274301,0,3.1640625e-6)">
	<circle
   style="fill:#333333"
   cx="164.937"
   cy="155.22701"
   r="37.216"
   id="circle4" />
	<circle
   style="fill:#333333"
   cx="305.664"
   cy="155.22701"
   r="37.216"
   id="circle6" />
</g>
<path
   style="fill:#efefef;stroke-width:0.02743009"
   d="m 9.904349,8.6825532 c 0.196235,0.0763 0.293337,0.29724 0.216972,0.49347 l -0.2763033,0.71055 C 9.7687617,10.082813 9.5477852,10.180023 9.3515503,10.103653 L 3.0948005,7.6697332 c -0.1962349,-0.0763 -0.2934472,-0.29724 -0.2170818,-0.49358 l 0.2764131,-0.71044 c 0.076256,-0.19624 0.2972325,-0.29334 0.4934674,-0.21708 z"
   id="path10"
   inkscape:connector-curvature="0" />
<path
   style="fill:#ffffff;stroke-width:0.02743009"
   d="m 9.2651181,6.1265932 c 0.1927512,-0.0848 0.4176232,0.003 0.5025193,0.19541 l 0.3068876,0.69793 c 0.08479,0.19265 -0.0026,0.41763 -0.1953294,0.50241 L 3.7340314,10.225583 c -0.1927513,0.0848 -0.4177329,-0.003 -0.5025193,-0.19552 L 2.9245144,9.3322432 c -0.084786,-0.19265 0.00277,-0.41763 0.195412,-0.50252 z"
   id="path12"
   inkscape:connector-curvature="0" />
<g
   id="g14"
   transform="translate(0,-460.93201)">
</g>
<g
   id="g16"
   transform="translate(0,-460.93201)">
</g>
<g
   id="g18"
   transform="translate(0,-460.93201)">
</g>
<g
   id="g20"
   transform="translate(0,-460.93201)">
</g>
<g
   id="g22"
   transform="translate(0,-460.93201)">
</g>
<g
   id="g24"
   transform="translate(0,-460.93201)">
</g>
<g
   id="g26"
   transform="translate(0,-460.93201)">
</g>
<g
   id="g28"
   transform="translate(0,-460.93201)">
</g>
<g
   id="g30"
   transform="translate(0,-460.93201)">
</g>
<g
   id="g32"
   transform="translate(0,-460.93201)">
</g>
<g
   id="g34"
   transform="translate(0,-460.93201)">
</g>
<g
   id="g36"
   transform="translate(0,-460.93201)">
</g>
<g
   id="g38"
   transform="translate(0,-460.93201)">
</g>
<g
   id="g40"
   transform="translate(0,-460.93201)">
</g>
<g
   id="g42"
   transform="translate(0,-460.93201)">
</g>
</svg>