<?xml version="1.0" encoding="UTF-8" standalone="no"?>
<!-- Generator: Adobe Illustrator 19.0.0, SVG Export Plug-In . SVG Version: 6.00 Build 0)  -->

<svg
   xmlns:dc="http://purl.org/dc/elements/1.1/"
   xmlns:cc="http://creativecommons.org/ns#"
   xmlns:rdf="http://www.w3.org/1999/02/22-rdf-syntax-ns#"
   xmlns:svg="http://www.w3.org/2000/svg"
   xmlns="http://www.w3.org/2000/svg"
   xmlns:sodipodi="http://sodipodi.sourceforge.net/DTD/sodipodi-0.dtd"
   xmlns:inkscape="http://www.inkscape.org/namespaces/inkscape"
   version="1.1"
   id="Layer_1"
   x="0px"
   y="0px"
   viewBox="0 0 13 13"
   xml:space="preserve"
   sodipodi:docname="smart.svg"
   width="13"
   height="13"
   inkscape:version="0.92.4 (5da689c313, 2019-01-14)"><metadata
   id="metadata51"><rdf:RDF><cc:Work
       rdf:about=""><dc:format>image/svg+xml</dc:format><dc:type
         rdf:resource="http://purl.org/dc/dcmitype/StillImage" /></cc:Work></rdf:RDF></metadata><defs
   id="defs49" /><sodipodi:namedview
   pagecolor="#ffffff"
   bordercolor="#666666"
   borderopacity="1"
   objecttolerance="10"
   gridtolerance="10"
   guidetolerance="10"
   inkscape:pageopacity="0"
   inkscape:pageshadow="2"
   inkscape:window-width="1600"
   inkscape:window-height="877"
   id="namedview47"
   showgrid="false"
   inkscape:zoom="0.49796278"
   inkscape:cx="236.9655"
   inkscape:cy="236.96651"
   inkscape:window-x="-8"
   inkscape:window-y="-8"
   inkscape:window-maximized="1"
   inkscape:current-layer="Layer_1" />
<circle
   style="fill:#ffc10e;stroke-width:0.02743009"
   cx="6.5"
   cy="6.5"
   r="6.5"
   id="circle2" />
<g
   id="g14"
   transform="matrix(0.02743009,0,0,0.02743009,0,3.1640625e-6)">
	<circle
   style="fill:#333333"
   cx="164.937"
   cy="189.367"
   r="37.216"
   id="circle4" />
	<circle
   style="fill:#333333"
   cx="305.664"
   cy="189.367"
   r="37.216"
   id="circle6" />
	<path
   style="fill:#333333"
   d="m 236.951,332.747 c -41.358,-0.797 -78.39,-16.995 -107.145,-46.712 -8.4,-8.685 -21.616,4.561 -13.227,13.227 32.119,33.197 74.218,51.307 120.372,52.194 12.074,0.232 12.048,-18.481 0,-18.709 z"
   id="path8"
   inkscape:connector-curvature="0" />
	<path
   style="fill:#333333"
   d="m 143.171,115.77 c 24.83,7.929 46.301,21.395 64.325,40.201 8.359,8.726 21.575,-4.524 13.227,-13.227 -20.224,-21.104 -44.759,-36.127 -72.575,-45.017 -11.529,-3.678 -16.423,14.387 -4.977,18.043 z"
   id="path10"
   inkscape:connector-curvature="0" />
	<path
   style="fill:#333333"
   d="m 261.119,154.565 c 23.031,-12.352 47.307,-18.481 73.436,-18.544 12.063,-0.03 12.067,-18.739 0,-18.709 -29.358,0.071 -57.021,7.233 -82.876,21.104 -10.635,5.698 -1.191,21.851 9.44,16.149 z"
   id="path12"
   inkscape:connector-curvature="0" />
</g>
<g
   id="g16"
   transform="translate(0,-460.93201)">
</g>
<g
   id="g18"
   transform="translate(0,-460.93201)">
</g>
<g
   id="g20"
   transform="translate(0,-460.93201)">
</g>
<g
   id="g22"
   transform="translate(0,-460.93201)">
</g>
<g
   id="g24"
   transform="translate(0,-460.93201)">
</g>
<g
   id="g26"
   transform="translate(0,-460.93201)">
</g>
<g
   id="g28"
   transform="translate(0,-460.93201)">
</g>
<g
   id="g30"
   transform="translate(0,-460.93201)">
</g>
<g
   id="g32"
   transform="translate(0,-460.93201)">
</g>
<g
   id="g34"
   transform="translate(0,-460.93201)">
</g>
<g
   id="g36"
   transform="translate(0,-460.93201)">
</g>
<g
   id="g38"
   transform="translate(0,-460.93201)">
</g>
<g
   id="g40"
   transform="translate(0,-460.93201)">
</g>
<g
   id="g42"
   transform="translate(0,-460.93201)">
</g>
<g
   id="g44"
   transform="translate(0,-460.93201)">
</g>
</svg>