<?xml version="1.0" encoding="UTF-8" standalone="no"?>
<!-- Generator: Adobe Illustrator 19.0.0, SVG Export Plug-In . SVG Version: 6.00 Build 0)  -->

<svg
   xmlns:dc="http://purl.org/dc/elements/1.1/"
   xmlns:cc="http://creativecommons.org/ns#"
   xmlns:rdf="http://www.w3.org/1999/02/22-rdf-syntax-ns#"
   xmlns:svg="http://www.w3.org/2000/svg"
   xmlns="http://www.w3.org/2000/svg"
   xmlns:sodipodi="http://sodipodi.sourceforge.net/DTD/sodipodi-0.dtd"
   xmlns:inkscape="http://www.inkscape.org/namespaces/inkscape"
   version="1.1"
   id="Layer_1"
   x="0px"
   y="0px"
   viewBox="0 0 13 13"
   xml:space="preserve"
   sodipodi:docname="smile.svg"
   width="13"
   height="13"
   inkscape:version="0.92.4 (5da689c313, 2019-01-14)"><metadata
   id="metadata51"><rdf:RDF><cc:Work
       rdf:about=""><dc:format>image/svg+xml</dc:format><dc:type
         rdf:resource="http://purl.org/dc/dcmitype/StillImage" /></cc:Work></rdf:RDF></metadata><defs
   id="defs49" /><sodipodi:namedview
   pagecolor="#ffffff"
   bordercolor="#666666"
   borderopacity="1"
   objecttolerance="10"
   gridtolerance="10"
   guidetolerance="10"
   inkscape:pageopacity="0"
   inkscape:pageshadow="2"
   inkscape:window-width="1600"
   inkscape:window-height="877"
   id="namedview47"
   showgrid="false"
   inkscape:zoom="0.49796278"
   inkscape:cx="236.9655"
   inkscape:cy="236.96651"
   inkscape:window-x="-8"
   inkscape:window-y="-8"
   inkscape:window-maximized="1"
   inkscape:current-layer="Layer_1" />
<circle
   style="fill:#ffc10e;stroke-width:0.02743009"
   cx="6.5"
   cy="6.5"
   r="6.5"
   id="circle2" />
<g
   id="g14"
   transform="matrix(0.0274301,0,0,0.0274301,0,3.1640625e-6)">
	<circle
   style="fill:#333333"
   cx="164.937"
   cy="152.99699"
   r="37.216"
   id="circle4" />
	<circle
   style="fill:#333333"
   cx="305.664"
   cy="152.99699"
   r="37.216"
   id="circle6" />
	<path
   style="fill:#333333"
   d="m 236.951,362.678 c -41.358,-0.797 -78.39,-16.995 -107.145,-46.712 -8.4,-8.685 -21.616,4.561 -13.227,13.227 32.119,33.197 74.218,51.307 120.372,52.194 12.074,0.231 12.048,-18.481 0,-18.709 z"
   id="path8"
   inkscape:connector-curvature="0" />
	<path
   style="fill:#333333"
   d="m 120.301,105.944 c 19.966,-16.759 42.907,-27.566 68.388,-32.845 11.809,-2.447 6.795,-20.482 -4.977,-18.043 -28.722,5.953 -54.218,18.836 -76.639,37.661 -9.252,7.764 4.057,20.931 13.228,13.227 z"
   id="path10"
   inkscape:connector-curvature="0" />
	<path
   style="fill:#333333"
   d="m 291.079,68.152 c 24.871,7.794 46.42,21.126 64.553,39.835 8.408,8.677 21.624,-4.565 13.227,-13.227 -20.34,-20.988 -44.939,-35.917 -72.803,-44.654 -11.548,-3.615 -16.449,14.447 -4.977,18.046 z"
   id="path12"
   inkscape:connector-curvature="0" />
</g>
<g
   id="g16"
   transform="translate(0,-460.93201)">
</g>
<g
   id="g18"
   transform="translate(0,-460.93201)">
</g>
<g
   id="g20"
   transform="translate(0,-460.93201)">
</g>
<g
   id="g22"
   transform="translate(0,-460.93201)">
</g>
<g
   id="g24"
   transform="translate(0,-460.93201)">
</g>
<g
   id="g26"
   transform="translate(0,-460.93201)">
</g>
<g
   id="g28"
   transform="translate(0,-460.93201)">
</g>
<g
   id="g30"
   transform="translate(0,-460.93201)">
</g>
<g
   id="g32"
   transform="translate(0,-460.93201)">
</g>
<g
   id="g34"
   transform="translate(0,-460.93201)">
</g>
<g
   id="g36"
   transform="translate(0,-460.93201)">
</g>
<g
   id="g38"
   transform="translate(0,-460.93201)">
</g>
<g
   id="g40"
   transform="translate(0,-460.93201)">
</g>
<g
   id="g42"
   transform="translate(0,-460.93201)">
</g>
<g
   id="g44"
   transform="translate(0,-460.93201)">
</g>
</svg>