<?xml version="1.0" encoding="UTF-8" standalone="no"?>
<!-- Generator: Adobe Illustrator 19.0.0, SVG Export Plug-In . SVG Version: 6.00 Build 0)  -->

<svg
   xmlns:dc="http://purl.org/dc/elements/1.1/"
   xmlns:cc="http://creativecommons.org/ns#"
   xmlns:rdf="http://www.w3.org/1999/02/22-rdf-syntax-ns#"
   xmlns:svg="http://www.w3.org/2000/svg"
   xmlns="http://www.w3.org/2000/svg"
   xmlns:sodipodi="http://sodipodi.sourceforge.net/DTD/sodipodi-0.dtd"
   xmlns:inkscape="http://www.inkscape.org/namespaces/inkscape"
   version="1.1"
   id="Layer_1"
   x="0px"
   y="0px"
   viewBox="0 0 13 13"
   xml:space="preserve"
   sodipodi:docname="tongue-out.svg"
   width="13"
   height="13"
   inkscape:version="0.92.4 (5da689c313, 2019-01-14)"><metadata
   id="metadata49"><rdf:RDF><cc:Work
       rdf:about=""><dc:format>image/svg+xml</dc:format><dc:type
         rdf:resource="http://purl.org/dc/dcmitype/StillImage" /></cc:Work></rdf:RDF></metadata><defs
   id="defs47" /><sodipodi:namedview
   pagecolor="#ffffff"
   bordercolor="#666666"
   borderopacity="1"
   objecttolerance="10"
   gridtolerance="10"
   guidetolerance="10"
   inkscape:pageopacity="0"
   inkscape:pageshadow="2"
   inkscape:window-width="1600"
   inkscape:window-height="877"
   id="namedview45"
   showgrid="false"
   inkscape:zoom="0.49795858"
   inkscape:cx="236.9675"
   inkscape:cy="236.96649"
   inkscape:window-x="-8"
   inkscape:window-y="-8"
   inkscape:window-maximized="1"
   inkscape:current-layer="Layer_1" />
<circle
   style="fill:#ffc10e;stroke-width:0.02742998"
   cx="6.5"
   cy="6.5"
   r="6.5"
   id="circle2" />
<g
   id="g8"
   transform="scale(0.02742998)">
	<circle
   style="fill:#333333"
   cx="164.938"
   cy="155.23199"
   r="37.216"
   id="circle4" />
	<circle
   style="fill:#333333"
   cx="305.66699"
   cy="155.23199"
   r="37.216"
   id="circle6" />
</g>
<path
   style="fill:#ca2027;stroke-width:0.02742998"
   d="m 6.0520137,8.7051795 c 0,0.97187 0.7879536,1.7598205 1.7598252,1.7598205 0.9719814,0 1.7599076,-0.7880305 1.7599076,-1.7598205 z"
   id="path10"
   inkscape:connector-curvature="0" />
<path
   style="fill:#333333;stroke-width:0.02742998"
   d="m 2.8879106,8.9581695 c 2.3695937,0 4.73916,0 7.1088634,0 0.330915,0 0.330915,-0.51319 0,-0.51319 -2.3695937,0 -4.73916,0 -7.1088634,0 -0.3309153,0 -0.3309153,0.51319 0,0.51319 z"
   id="path12"
   inkscape:connector-curvature="0" />
<g
   id="g14"
   transform="translate(0,-460.93399)">
</g>
<g
   id="g16"
   transform="translate(0,-460.93399)">
</g>
<g
   id="g18"
   transform="translate(0,-460.93399)">
</g>
<g
   id="g20"
   transform="translate(0,-460.93399)">
</g>
<g
   id="g22"
   transform="translate(0,-460.93399)">
</g>
<g
   id="g24"
   transform="translate(0,-460.93399)">
</g>
<g
   id="g26"
   transform="translate(0,-460.93399)">
</g>
<g
   id="g28"
   transform="translate(0,-460.93399)">
</g>
<g
   id="g30"
   transform="translate(0,-460.93399)">
</g>
<g
   id="g32"
   transform="translate(0,-460.93399)">
</g>
<g
   id="g34"
   transform="translate(0,-460.93399)">
</g>
<g
   id="g36"
   transform="translate(0,-460.93399)">
</g>
<g
   id="g38"
   transform="translate(0,-460.93399)">
</g>
<g
   id="g40"
   transform="translate(0,-460.93399)">
</g>
<g
   id="g42"
   transform="translate(0,-460.93399)">
</g>
</svg>